#Comment line ignore any data following # character 
#Hierarchical Translation and Rotation (.htr) file 
[Header]	
#Header keywords are followed by a single value 
FileType HTR		#Single word string
DataType HTRS		#Translation followed by rotation and scale data
FileVersion 1		#integer
NumSegments 84		#integer
NumFrames 2		#integer
DataFrameRate 30		#integer, data frame rate in this file
EulerRotationOrder ZYX
CalibrationUnits mm
RotationUnits Degrees
GlobalAxisofGravity Y
BoneLengthAxis Y
ScaleFactor 1.00
[SegmentNames&Hierarchy]
#CHILD	PARENT
MASTER GLOBAL
root MASTER
chest root
L_mid_tent01 root
R_mid_tent01 root
spine01 root
Bip01_Neck chest
L_humerus chest
R_humerus chest
weapon_bone chest
Bip01_Head Bip01_Neck
eye_left_bone Bip01_Head
eye_right_bone Bip01_Head
L_forearm L_humerus
L_front_hand L_forearm
L_weapon_bone L_forearm
L_front_hand01_01 L_front_hand
L_front_hand02_01 L_front_hand
L_front_hand03_01 L_front_hand
L_front_hand01_02 L_front_hand01_01
L_front_hand02_02 L_front_hand02_01
L_front_hand03_02 L_front_hand03_01
R_forearm R_humerus
R_front_hand R_forearm
R_weapon_bone R_forearm
R_front_hand01_01 R_front_hand
R_front_hand02_01 R_front_hand
R_front_hand03_01 R_front_hand
R_front_hand01_02 R_front_hand01_01
R_front_hand02_02 R_front_hand02_01
R_front_hand03_02 R_front_hand03_01
null_rope01_connect L_mid_tent01
Rope1_Seg01 null_rope01_connect
Rope1_Seg02 Rope1_Seg01
Rope1_Seg03 Rope1_Seg02
Rope1_Seg04 Rope1_Seg03
Rope1_Seg05 Rope1_Seg04
Rope1_Seg06 Rope1_Seg05
Rope1_Seg07 Rope1_Seg06
Rope1_Seg09 Rope1_Seg07
L_mid_hand01 Rope1_Seg09
L_mid_hand02 Rope1_Seg09
L_mid_hand03 Rope1_Seg09
null_rope02_connect R_mid_tent01
Rope2_Seg01 null_rope02_connect
Rope2_Seg02 Rope2_Seg01
Rope2_Seg03 Rope2_Seg02
Rope2_Seg04 Rope2_Seg03
Rope2_Seg05 Rope2_Seg04
Rope2_Seg06 Rope2_Seg05
Rope2_Seg07 Rope2_Seg06
Rope2_Seg09 Rope2_Seg07
R_mid_hand01 Rope2_Seg09
R_mid_hand02 Rope2_Seg09
R_mid_hand03 Rope2_Seg09
spine02 spine01
spine03 spine02
pelvis spine03
null_rope03_connect pelvis
null_rope04_connect pelvis
Rope3_Seg01 null_rope03_connect
Rope3_Seg02 Rope3_Seg01
Rope3_Seg03 Rope3_Seg02
Rope3_Seg04 Rope3_Seg03
Rope3_Seg05 Rope3_Seg04
Rope3_Seg06 Rope3_Seg05
Rope3_Seg07 Rope3_Seg06
Rope3_Seg08 Rope3_Seg07
Rope3_Seg09 Rope3_Seg08
R_rear_hand01 Rope3_Seg09
R_rear_hand02 Rope3_Seg09
R_rear_hand03 Rope3_Seg09
Rope4_Seg01 null_rope04_connect
Rope4_Seg02 Rope4_Seg01
Rope4_Seg03 Rope4_Seg02
Rope4_Seg04 Rope4_Seg03
Rope4_Seg05 Rope4_Seg04
Rope4_Seg06 Rope4_Seg05
Rope4_Seg07 Rope4_Seg06
Rope4_Seg08 Rope4_Seg07
Rope4_Seg09 Rope4_Seg08
L_rear_hand01 Rope4_Seg09
L_rear_hand02 Rope4_Seg09
L_rear_hand03 Rope4_Seg09
[BasePosition]
#SegmentName Tx, Ty, Tz, Rx, Ry, Rz, BoneLength
MASTER 0.000000 0.000000 0.000000 -90.000000 0.000000 0.000000 10.000000 
root 0.000000 0.000000 0.000000 0.000000 0.000000 0.000000 10.000000 
chest 0.000000 0.000000 0.000000 0.000000 0.000000 0.000000 10.000000 
L_mid_tent01 0.000000 0.000000 0.000000 0.000000 0.000000 0.000000 10.000000 
R_mid_tent01 0.000000 0.000000 0.000000 0.000000 0.000000 0.000000 10.000000 
spine01 0.000000 0.000000 0.000000 0.000000 0.000000 0.000000 10.000000 
Bip01_Neck 0.000000 0.000000 0.000000 0.000000 0.000000 0.000000 10.000000 
L_humerus 0.000000 0.000000 0.000000 0.000000 0.000000 0.000000 10.000000 
R_humerus 0.000000 0.000000 0.000000 0.000000 0.000000 0.000000 10.000000 
weapon_bone 0.000000 0.000000 0.000000 0.000000 0.000000 0.000000 10.000000 
Bip01_Head 0.000000 0.000000 0.000000 0.000000 0.000000 0.000000 10.000000 
eye_left_bone 0.000000 0.000000 0.000000 0.000000 0.000000 0.000000 10.000000 
eye_right_bone 0.000000 0.000000 0.000000 0.000000 0.000000 0.000000 10.000000 
L_forearm 0.000000 0.000000 0.000000 0.000000 0.000000 0.000000 10.000000 
L_front_hand 0.000000 0.000000 0.000000 0.000000 0.000000 0.000000 10.000000 
L_weapon_bone 0.000000 0.000000 0.000000 0.000000 0.000000 0.000000 10.000000 
L_front_hand01_01 0.000000 0.000000 0.000000 0.000000 0.000000 0.000000 10.000000 
L_front_hand02_01 0.000000 0.000000 0.000000 0.000000 0.000000 0.000000 10.000000 
L_front_hand03_01 0.000000 0.000000 0.000000 0.000000 0.000000 0.000000 10.000000 
L_front_hand01_02 0.000000 0.000000 0.000000 0.000000 0.000000 0.000000 10.000000 
L_front_hand02_02 0.000000 0.000000 0.000000 0.000000 0.000000 0.000000 10.000000 
L_front_hand03_02 0.000000 0.000000 0.000000 0.000000 0.000000 0.000000 10.000000 
R_forearm 0.000000 0.000000 0.000000 0.000000 0.000000 0.000000 10.000000 
R_front_hand 0.000000 0.000000 0.000000 0.000000 0.000000 0.000000 10.000000 
R_weapon_bone 0.000000 0.000000 0.000000 0.000000 0.000000 0.000000 10.000000 
R_front_hand01_01 0.000000 0.000000 0.000000 0.000000 0.000000 0.000000 10.000000 
R_front_hand02_01 0.000000 0.000000 0.000000 0.000000 0.000000 0.000000 10.000000 
R_front_hand03_01 0.000000 0.000000 0.000000 0.000000 0.000000 0.000000 10.000000 
R_front_hand01_02 0.000000 0.000000 0.000000 0.000000 0.000000 0.000000 10.000000 
R_front_hand02_02 0.000000 0.000000 0.000000 0.000000 0.000000 0.000000 10.000000 
R_front_hand03_02 0.000000 0.000000 0.000000 0.000000 0.000000 0.000000 10.000000 
null_rope01_connect 0.000000 0.000000 0.000000 0.000000 0.000000 0.000000 10.000000 
Rope1_Seg01 0.000000 0.000000 0.000000 0.000000 0.000000 0.000000 10.000000 
Rope1_Seg02 0.000000 0.000000 0.000000 0.000000 0.000000 0.000000 10.000000 
Rope1_Seg03 0.000000 0.000000 0.000000 0.000000 0.000000 0.000000 10.000000 
Rope1_Seg04 0.000000 0.000000 0.000000 0.000000 0.000000 0.000000 10.000000 
Rope1_Seg05 0.000000 0.000000 0.000000 0.000000 0.000000 0.000000 10.000000 
Rope1_Seg06 0.000000 0.000000 0.000000 0.000000 0.000000 0.000000 10.000000 
Rope1_Seg07 0.000000 0.000000 0.000000 0.000000 0.000000 0.000000 10.000000 
Rope1_Seg09 0.000000 0.000000 0.000000 0.000000 0.000000 0.000000 10.000000 
L_mid_hand01 0.000000 0.000000 0.000000 0.000000 0.000000 0.000000 10.000000 
L_mid_hand02 0.000000 0.000000 0.000000 0.000000 0.000000 0.000000 10.000000 
L_mid_hand03 0.000000 0.000000 0.000000 0.000000 0.000000 0.000000 10.000000 
null_rope02_connect 0.000000 0.000000 0.000000 0.000000 0.000000 0.000000 10.000000 
Rope2_Seg01 0.000000 0.000000 0.000000 0.000000 0.000000 0.000000 10.000000 
Rope2_Seg02 0.000000 0.000000 0.000000 0.000000 0.000000 0.000000 10.000000 
Rope2_Seg03 0.000000 0.000000 0.000000 0.000000 0.000000 0.000000 10.000000 
Rope2_Seg04 0.000000 0.000000 0.000000 0.000000 0.000000 0.000000 10.000000 
Rope2_Seg05 0.000000 0.000000 0.000000 0.000000 0.000000 0.000000 10.000000 
Rope2_Seg06 0.000000 0.000000 0.000000 0.000000 0.000000 0.000000 10.000000 
Rope2_Seg07 0.000000 0.000000 0.000000 0.000000 0.000000 0.000000 10.000000 
Rope2_Seg09 0.000000 0.000000 0.000000 0.000000 0.000000 0.000000 10.000000 
R_mid_hand01 0.000000 0.000000 0.000000 0.000000 0.000000 0.000000 10.000000 
R_mid_hand02 0.000000 0.000000 0.000000 0.000000 0.000000 0.000000 10.000000 
R_mid_hand03 0.000000 0.000000 0.000000 0.000000 0.000000 0.000000 10.000000 
spine02 0.000000 0.000000 0.000000 0.000000 0.000000 0.000000 10.000000 
spine03 0.000000 0.000000 0.000000 0.000000 0.000000 0.000000 10.000000 
pelvis 0.000000 0.000000 0.000000 0.000000 0.000000 0.000000 10.000000 
null_rope03_connect 0.000000 0.000000 0.000000 0.000000 0.000000 0.000000 10.000000 
null_rope04_connect 0.000000 0.000000 0.000000 0.000000 0.000000 0.000000 10.000000 
Rope3_Seg01 0.000000 0.000000 0.000000 0.000000 0.000000 0.000000 10.000000 
Rope3_Seg02 0.000000 0.000000 0.000000 0.000000 0.000000 0.000000 10.000000 
Rope3_Seg03 0.000000 0.000000 0.000000 0.000000 0.000000 0.000000 10.000000 
Rope3_Seg04 0.000000 0.000000 0.000000 0.000000 0.000000 0.000000 10.000000 
Rope3_Seg05 0.000000 0.000000 0.000000 0.000000 0.000000 0.000000 10.000000 
Rope3_Seg06 0.000000 0.000000 0.000000 0.000000 0.000000 0.000000 10.000000 
Rope3_Seg07 0.000000 0.000000 0.000000 0.000000 0.000000 0.000000 10.000000 
Rope3_Seg08 0.000000 0.000000 0.000000 0.000000 0.000000 0.000000 10.000000 
Rope3_Seg09 0.000000 0.000000 0.000000 0.000000 0.000000 0.000000 10.000000 
R_rear_hand01 0.000000 0.000000 0.000000 0.000000 0.000000 0.000000 10.000000 
R_rear_hand02 0.000000 0.000000 0.000000 0.000000 0.000000 0.000000 10.000000 
R_rear_hand03 0.000000 0.000000 0.000000 0.000000 0.000000 0.000000 10.000000 
Rope4_Seg01 0.000000 0.000000 0.000000 0.000000 0.000000 0.000000 10.000000 
Rope4_Seg02 0.000000 0.000000 0.000000 0.000000 0.000000 0.000000 10.000000 
Rope4_Seg03 0.000000 0.000000 0.000000 0.000000 0.000000 0.000000 10.000000 
Rope4_Seg04 0.000000 0.000000 0.000000 0.000000 0.000000 0.000000 10.000000 
Rope4_Seg05 0.000000 0.000000 0.000000 0.000000 0.000000 0.000000 10.000000 
Rope4_Seg06 0.000000 0.000000 0.000000 0.000000 0.000000 0.000000 10.000000 
Rope4_Seg07 0.000000 0.000000 0.000000 0.000000 0.000000 0.000000 10.000000 
Rope4_Seg08 0.000000 0.000000 0.000000 0.000000 0.000000 0.000000 10.000000 
Rope4_Seg09 0.000000 0.000000 0.000000 0.000000 0.000000 0.000000 10.000000 
L_rear_hand01 0.000000 0.000000 0.000000 0.000000 0.000000 0.000000 10.000000 
L_rear_hand02 0.000000 0.000000 0.000000 0.000000 0.000000 0.000000 10.000000 
L_rear_hand03 0.000000 0.000000 0.000000 0.000000 0.000000 0.000000 10.000000 
#Beginning of Data. Separated by tabs
#Fr	Tx	Ty	Tz	Rx	Ry	Rz	SF
[MASTER]
46 -657.351868 4001.245117 493.065460 0.001660 0.001660 0.001660 4084.750732
47 -478.239960 4111.531250 351.673035 0.001660 0.001660 0.001660 4154.164063
[root]
46 -4.712233 -85.672096 1004.091370 -132.704437 -14.539687 -86.319763 1007.750610
47 -10.138778 -76.376038 1115.910645 -120.105324 -18.350727 -87.532890 1118.567261
[chest]
46 -84.512650 -34.090519 0.000000 -45.211807 -17.473484 -177.722183 91.129311
47 -84.512650 -34.090519 0.000000 -38.199364 -13.712456 179.097015 91.129311
[L_mid_tent01]
46 27.298923 22.178984 -249.918808 -8.764905 41.968742 49.126778 252.381744
47 27.298920 22.178980 -249.918808 -8.194835 43.663132 50.734715 252.381744
[R_mid_tent01]
46 23.228794 24.509907 226.238495 165.377716 17.660503 59.939499 228.744751
47 23.228794 24.509907 226.238495 166.974884 8.210786 60.258949 228.744751
[spine01]
46 -0.361383 -0.195265 0.000000 0.001949 0.001309 22.235294 0.410763
47 -0.361383 -0.195265 0.000000 0.001948 0.001309 22.207066 0.410763
[Bip01_Neck]
46 165.484543 71.581718 0.000119 176.643677 -1.657967 43.431911 180.302734
47 165.484543 71.581718 0.000119 176.643677 -1.657967 43.431911 180.302734
[L_humerus]
46 -13.983130 -135.272980 -120.471481 159.615936 63.920509 -108.384270 181.680161
47 -13.983130 -135.272980 -120.471481 159.273102 64.747948 -108.772514 181.680161
[R_humerus]
46 -13.983309 -135.273102 125.287651 -159.199402 -58.063526 -109.166611 184.909012
47 -13.983309 -135.273102 125.287651 -161.548218 -59.564762 -106.044189 184.909012
[weapon_bone]
46 235.964890 -300.705902 0.000000 0.000000 -89.951546 -128.212341 382.234833
47 235.964890 -300.705902 0.000000 0.000000 -89.951546 -128.212341 382.234833
[Bip01_Head]
46 213.403061 185.829620 10.304465 16.495733 6.149968 -43.831402 283.160187
47 213.415695 185.794632 10.755585 17.411644 6.148061 -43.831974 283.163544
[eye_left_bone]
46 -24.626970 125.451866 -64.772606 0.000000 -90.000000 -99.840431 143.318359
47 -24.626970 125.451866 -64.772606 0.000000 -90.000000 -99.840431 143.318359
[eye_right_bone]
46 -24.626970 125.451866 64.327362 0.000000 -89.965736 80.156380 143.117676
47 -24.626970 125.451866 64.327362 0.000000 -89.965736 80.156380 143.117676
[L_forearm]
46 322.776093 0.000000 -0.000119 0.000332 -0.002324 -106.253380 322.776093
47 322.776093 0.000000 -0.000119 0.000339 -0.002323 -106.597290 322.776093
[L_front_hand]
46 241.149185 -0.042021 -3.300071 -105.490540 -1.835781 -27.423635 241.171753
47 241.149185 -0.042021 -3.300071 -105.490540 -1.835781 -27.423635 241.171753
[L_weapon_bone]
46 156.183838 0.000000 0.000000 0.000014 0.000007 0.000001 156.183838
47 156.183838 0.000000 0.000000 0.000014 0.000007 0.000001 156.183838
[L_front_hand01_01]
46 86.095154 20.947098 -0.655860 -0.366594 -0.477154 75.385574 88.609184
47 86.095154 20.947098 -0.655860 -0.366594 -0.477154 75.385574 88.609184
[L_front_hand02_01]
46 86.935165 -11.437475 24.513514 154.399796 -59.883835 -61.369587 91.046425
47 86.935165 -11.437475 24.513514 154.399796 -59.883835 -61.369587 91.046425
[L_front_hand03_01]
46 86.637497 -14.123976 -20.424902 -153.913849 58.118122 -62.702866 90.126129
47 86.637497 -14.123976 -20.424902 -153.913849 58.118130 -62.702866 90.126129
[L_front_hand01_02]
46 71.020905 -0.000179 0.000030 0.000334 -0.002323 -106.379684 71.020905
47 71.020905 -0.000179 0.000030 0.000334 -0.002323 -106.379684 71.020905
[L_front_hand02_02]
46 71.020927 -0.000119 0.000060 0.000334 -0.002323 -106.379684 71.020927
47 71.020927 -0.000119 0.000060 0.000334 -0.002323 -106.379684 71.020927
[L_front_hand03_02]
46 71.020905 -0.000060 0.000060 0.000334 -0.002323 -106.379684 71.020905
47 71.020905 -0.000060 0.000060 0.000334 -0.002323 -106.379684 71.020905
[R_forearm]
46 322.776428 -0.000060 0.000030 0.207686 0.050312 -104.872826 322.776428
47 322.776428 -0.000060 0.000030 0.206552 0.051689 -105.218300 322.776428
[R_front_hand]
46 238.847015 -0.006795 2.210259 15.488859 -10.646104 -26.316046 238.857239
47 238.847015 -0.006795 2.210259 15.488859 -10.646104 -26.316046 238.857239
[R_weapon_bone]
46 155.664093 0.002503 -0.000030 0.003487 0.001180 -90.988930 155.664078
47 155.664093 0.002503 -0.000030 0.003487 0.001180 -90.988930 155.664078
[R_front_hand01_01]
46 87.624611 14.231146 22.918642 -154.633484 -59.950619 61.746037 91.683487
47 87.624611 14.231146 22.918642 -154.633499 -59.950619 61.746044 91.683487
[R_front_hand02_01]
46 89.356956 14.367283 -19.491137 154.602661 58.302849 63.744389 92.579636
47 89.356956 14.367283 -19.491137 154.602661 58.302849 63.744389 92.579636
[R_front_hand03_01]
46 87.286232 -22.307278 -0.143439 0.162155 -0.423168 -75.767921 90.091743
47 87.286232 -22.307278 -0.143439 0.162155 -0.423168 -75.767921 90.091743
[R_front_hand01_02]
46 71.020905 0.000060 0.000119 0.002323 -0.000334 106.381714 71.020905
47 71.020905 0.000060 0.000119 0.002323 -0.000334 106.381714 71.020905
[R_front_hand02_02]
46 71.020844 -0.000030 -0.000119 0.002323 -0.000334 106.381714 71.020836
47 71.020844 -0.000030 -0.000119 0.002323 -0.000334 106.381714 71.020836
[R_front_hand03_02]
46 71.020905 0.000000 0.000030 0.002323 -0.000334 106.381714 71.020905
47 71.020905 0.000000 0.000030 0.002323 -0.000334 106.381714 71.020905
[null_rope01_connect]
46 328.732483 0.000000 -0.000238 -147.258469 -9.672511 -148.586853 328.732483
47 328.732483 0.000000 -0.000238 -142.512497 -19.500574 -155.361099 328.732483
[Rope1_Seg01]
46 -0.000031 -0.000007 0.000153 -28.822180 -22.742414 -171.780609 0.000156
47 -0.000032 -0.000006 0.000153 -15.371346 -7.710445 -166.309814 0.000156
[Rope1_Seg02]
46 139.999863 -0.000179 0.000000 22.906685 5.366720 20.986410 139.999863
47 139.999863 -0.000179 0.000000 17.754520 4.660618 16.955471 139.999863
[Rope1_Seg03]
46 139.999924 0.000060 -0.000060 28.945915 21.015707 15.084064 139.999924
47 139.999924 0.000060 -0.000060 17.559006 14.663101 7.849843 139.999924
[Rope1_Seg04]
46 139.999924 -0.000060 -0.000119 17.953463 3.648219 18.150116 139.999924
47 139.999924 -0.000060 -0.000119 19.564064 2.516678 19.157455 139.999924
[Rope1_Seg05]
46 139.999832 0.000119 -0.000060 14.757886 -1.109514 14.173576 139.999832
47 139.999832 0.000119 -0.000060 22.708321 0.981251 16.354542 139.999832
[Rope1_Seg06]
46 139.999954 0.000119 -0.000060 8.044662 1.879156 4.131221 139.999954
47 139.999954 0.000119 -0.000060 10.707996 3.014678 4.399528 139.999954
[Rope1_Seg07]
46 139.999985 0.000060 0.000000 5.132261 1.455853 2.245507 139.999985
47 139.999985 0.000060 0.000000 6.264319 2.194152 2.123256 139.999985
[Rope1_Seg09]
46 121.602913 0.000119 -0.000089 -89.793175 -1.359789 0.847147 121.602913
47 121.602913 0.000119 -0.000089 -89.793175 -1.359789 0.847147 121.602913
[L_mid_hand01]
46 103.859421 1.038730 8.195221 130.544373 -67.584534 -38.866943 104.187431
47 103.859421 1.038730 8.195221 130.544373 -67.584534 -38.866943 104.187431
[L_mid_hand02]
46 105.572853 -4.139662 -10.864139 -168.923172 43.409309 -73.498886 106.211075
47 105.572853 -4.139662 -10.864139 -168.923172 43.409309 -73.498886 106.211075
[L_mid_hand03]
46 104.641464 17.579376 -3.913581 -6.012627 17.808174 74.893669 106.179977
47 104.641464 17.579376 -3.913581 -6.012627 17.808178 74.893677 106.179977
[null_rope02_connect]
46 328.732849 0.000179 -0.000119 8.323113 25.389729 145.504211 328.732849
47 328.732849 0.000179 -0.000119 5.336946 46.136883 139.242676 328.732849
[Rope2_Seg01]
46 0.000069 0.000270 0.000125 29.335741 43.369995 -37.793594 0.000306
47 0.000070 0.000274 0.000128 35.448452 30.108543 -33.552101 0.000310
[Rope2_Seg02]
46 139.999741 -0.000060 -0.000119 -2.817864 -3.889024 -4.180491 139.999756
47 139.999741 -0.000060 -0.000119 -4.757015 -4.073070 -4.228496 139.999756
[Rope2_Seg03]
46 140.000107 0.000030 0.000000 -4.743011 -5.713751 -6.838367 140.000107
47 140.000107 0.000030 0.000000 -7.252487 -5.208138 -6.443359 140.000107
[Rope2_Seg04]
46 139.999802 0.000000 -0.000060 -8.449864 -8.450653 -12.279291 139.999802
47 139.999802 0.000000 -0.000060 -10.954954 -6.275994 -10.179366 139.999802
[Rope2_Seg05]
46 139.999985 -0.000060 0.000119 -15.485767 -14.188356 -25.694120 139.999985
47 139.999985 -0.000060 0.000119 -17.198431 -9.219751 -17.371132 139.999985
[Rope2_Seg06]
46 139.999893 -0.000030 -0.000119 -10.426599 -3.000042 -22.928865 139.999893
47 139.999893 -0.000030 -0.000119 -11.038231 0.345826 -16.118647 139.999893
[Rope2_Seg07]
46 139.999893 0.000060 -0.000060 -1.560834 4.960116 -6.306986 139.999893
47 139.999893 0.000060 -0.000060 -1.820057 8.120519 -6.418397 139.999893
[Rope2_Seg09]
46 121.338966 0.000089 -0.000060 33.793236 -1.359788 -0.847141 121.338966
47 121.338966 0.000089 -0.000060 33.793236 -1.359788 -0.847141 121.338966
[R_mid_hand01]
46 104.680779 11.144459 -10.335981 -16.212063 45.237247 70.462852 105.778534
47 104.680779 11.144459 -10.335981 -16.212063 45.237247 70.462852 105.778534
[R_mid_hand02]
46 104.070427 2.443552 8.231699 49.067368 -67.749771 39.286453 104.424065
47 104.070427 2.443552 8.231699 49.067368 -67.749771 39.286453 104.424065
[R_mid_hand03]
46 106.028137 -11.221827 -5.996406 -177.101105 15.551026 -76.585571 106.788818
47 106.028137 -11.221827 -5.996406 -177.101105 15.551026 -76.585571 106.788818
[spine02]
46 129.756927 0.001550 0.000119 0.036582 -4.061178 -8.340928 129.756927
47 129.756927 0.001550 0.000119 0.072787 -4.061143 -8.848250 129.756927
[spine03]
46 78.613922 0.081662 -4.898957 1.701877 3.923747 13.632508 78.766457
47 78.613914 0.081659 -4.898956 1.722887 3.914243 13.936065 78.766449
[pelvis]
46 169.435242 0.051022 0.000000 -0.041585 -0.185405 8.324663 169.435257
47 169.435242 0.051022 0.000000 -0.042487 -0.183521 8.962566 169.435257
[null_rope03_connect]
46 -1.257226 -2.466202 137.391083 -169.284424 -48.894474 -120.573975 137.418976
47 -1.257226 -2.466202 137.391083 -165.602249 -61.417343 -121.618652 137.418976
[null_rope04_connect]
46 -1.259640 -2.480268 -137.844437 -169.284424 -48.894474 -120.573975 137.872513
47 -1.259640 -2.480268 -137.844437 -165.602249 -61.417343 -121.618652 137.872513
[Rope3_Seg01]
46 0.000000 0.000000 0.000000 4.661373 -21.416912 -45.976040 0.000000
47 0.000000 0.000000 0.000000 2.397828 -28.054983 -45.715435 0.000000
[Rope3_Seg02]
46 139.999924 -0.000119 0.000060 1.873277 -6.603323 -17.118399 139.999924
47 139.999924 -0.000119 0.000060 1.758231 -0.752551 -15.145232 139.999924
[Rope3_Seg03]
46 139.999924 -0.000119 0.000119 0.382624 -4.275243 -10.971895 139.999924
47 139.999924 -0.000119 0.000119 0.099347 0.017003 -11.909188 139.999924
[Rope3_Seg04]
46 139.999924 0.000119 0.000000 -0.110591 -6.060590 -14.872278 139.999924
47 139.999924 0.000119 0.000000 -1.680016 -1.720375 -17.919060 139.999924
[Rope3_Seg05]
46 139.999924 -0.000238 0.000060 -2.671676 -10.857727 -27.525757 139.999924
47 139.999924 -0.000238 0.000060 -8.025907 -4.597604 -28.760405 139.999924
[Rope3_Seg06]
46 139.999893 -0.000119 -0.000060 -6.866859 -4.006499 -13.049199 139.999893
47 139.999893 -0.000119 -0.000060 -8.196710 -0.052489 -11.497447 139.999893
[Rope3_Seg07]
46 139.999771 0.000060 -0.000119 -5.904797 -0.976056 -5.685316 139.999771
47 139.999771 0.000060 -0.000119 -5.408468 0.795002 -5.236559 139.999771
[Rope3_Seg08]
46 139.999985 -0.000060 0.000000 -4.629704 -0.209614 -3.143244 139.999985
47 139.999985 -0.000060 0.000000 -3.365491 0.705752 -2.819870 139.999985
[Rope3_Seg09]
46 90.185997 -0.000179 -0.000060 89.793228 -1.359877 -0.847183 90.185997
47 90.185997 -0.000179 -0.000060 89.793228 -1.359877 -0.847183 90.185997
[R_rear_hand01]
46 103.366196 -6.073594 -10.757982 172.856537 -15.220671 -75.434441 104.101845
47 103.366196 -6.073594 -10.757982 172.856537 -15.220671 -75.434441 104.101845
[R_rear_hand02]
46 100.509819 12.039542 -7.992327 -12.874829 36.868488 72.167213 101.543350
47 100.509819 12.039542 -7.992327 -12.874829 36.868488 72.167213 101.543350
[R_rear_hand03]
46 101.539970 5.215704 5.435467 71.484581 -71.816628 21.513813 101.819031
47 101.539970 5.215704 5.435467 71.484581 -71.816628 21.513813 101.819031
[Rope4_Seg01]
46 -0.000019 -0.000250 -0.000153 -89.388184 -52.952477 -122.236046 0.000293
47 -0.000019 -0.000255 -0.000153 -84.706810 -44.029785 -128.810333 0.000298
[Rope4_Seg02]
46 139.999985 0.000060 0.000119 0.075888 -2.988766 5.884696 139.999985
47 139.999985 0.000060 0.000119 -0.753189 -4.913620 4.772807 139.999985
[Rope4_Seg03]
46 139.999924 0.000000 -0.000238 0.416839 -8.611365 -0.178512 139.999924
47 139.999924 0.000000 -0.000238 0.236383 -9.497466 -1.809588 139.999924
[Rope4_Seg04]
46 139.999985 0.000000 0.000119 1.276927 3.060776 11.404595 139.999985
47 139.999985 0.000000 0.000119 0.595050 0.323549 12.710334 139.999985
[Rope4_Seg05]
46 139.999802 -0.000060 -0.000119 0.905701 14.710988 17.923462 139.999802
47 139.999802 -0.000060 -0.000119 -0.302901 9.888742 18.759541 139.999802
[Rope4_Seg06]
46 139.999924 0.000000 0.000060 -1.092927 4.341309 5.763475 139.999924
47 139.999924 0.000000 0.000060 -1.279767 2.473501 5.799330 139.999924
[Rope4_Seg07]
46 139.999802 0.000000 0.000000 -0.802506 2.101483 3.098755 139.999802
47 139.999802 0.000000 0.000000 -0.879339 1.209215 3.257255 139.999802
[Rope4_Seg08]
46 139.999924 0.000000 0.000119 -2.082165 1.182133 1.800661 139.999924
47 139.999924 0.000000 0.000119 -2.114364 0.669858 1.893829 139.999924
[Rope4_Seg09]
46 90.185791 0.000060 0.000060 -135.617828 2.228885 0.850567 90.185791
47 90.185791 0.000060 0.000060 -135.617828 2.228885 0.850567 90.185791
[L_rear_hand01]
46 101.696655 -8.392275 -7.654577 -12.874829 -36.868488 107.832764 102.329041
47 101.696655 -8.392275 -7.654577 -12.874829 -36.868488 107.832764 102.329041
[L_rear_hand02]
46 102.726799 -1.568258 5.773216 71.484581 71.816628 158.486160 102.900848
47 102.726799 -1.568258 5.773216 71.484581 71.816628 158.486160 102.900848
[L_rear_hand03]
46 104.552910 9.721220 -10.420293 -177.714203 -24.565960 -106.089035 105.519653
47 104.552910 9.721220 -10.420293 -177.714203 -24.565960 -106.089035 105.519653
